<?xml version="1.0" encoding="utf-8"?>
<!-- Generator: Adobe Illustrator 25.3.1, SVG Export Plug-In . SVG Version: 6.00 Build 0)  -->
<svg version="1.1" id="Layer_1" xmlns="http://www.w3.org/2000/svg" xmlns:xlink="http://www.w3.org/1999/xlink" x="0px" y="0px"
	 viewBox="0 0 383 70" enable-background="new 0 0 383 70" xml:space="preserve">
<path id="_105812984" fill="#65A9CB" d="M39.824,10.659c0.876,0.28,1.715,0.62,2.53,1.022c3.089-2.201,8.526-6.142,9.524-5.887
	c1.01,0.255,4.33,3.381,4.33,3.381s3.272,3.345,3.539,4.366c0.268,1.022-4.196,6.361-6.726,9.426c0.401,0.912,0.73,1.861,1.01,2.846
	c3.904,0.632,10.947,1.751,11.47,2.773c0.523,1.022,0.377,6.24,0.377,6.24s-0.341,5.303-0.973,6.325
	c-0.632,1.01-7.93,1.593-11.993,1.934c-0.414,1.01-0.888,1.983-1.423,2.907c2.189,3.503,6.167,9.779,5.753,10.922
	c-0.414,1.143-4.366,4.695-4.366,4.695s-4.05,3.357-5.181,3.564c-1.131,0.207-6.313-4.865-9.195-7.663
	c-0.937,0.365-1.897,0.693-2.883,0.937c-0.912,3.977-2.481,10.995-3.466,11.409c-0.997,0.414-5.704-0.195-5.704-0.195
	s-4.573-0.778-5.4-1.447c-0.815-0.669-0.924-7.614-1.01-11.53c-0.827-0.438-1.605-0.924-2.347-1.46
	c-2.943,1.97-7.979,5.388-8.818,4.975c-0.839-0.426-3.32-4.087-3.32-4.087s-2.323-3.661-2.433-4.671
	c-0.109-1.01,3.758-5.741,5.972-8.49c-0.255-0.876-0.462-1.776-0.608-2.688c-2.956-0.705-7.955-1.885-8.222-2.761
	c-0.268-0.888,0.28-5.23,0.28-5.23s0.681-4.281,1.18-5.108c0.511-0.827,5.68-1.569,8.721-2.019c0.377-0.851,0.803-1.678,1.253-2.481
	c-1.447-2.7-3.941-7.273-3.588-8.161c0.353-0.888,3.393-3.953,3.393-3.953s3.138-2.98,3.989-3.284
	c0.864-0.304,4.768,2.98,7.079,4.902c0.803-0.401,1.63-0.778,2.481-1.095c0.851-3.345,2.274-9.122,3.138-9.621
	c0.864-0.499,5.108-0.827,5.108-0.827s4.33-0.17,5.157,0.243C39.277,1.282,39.605,7.205,39.824,10.659L39.824,10.659z"/>
<path id="_105819536" fill="#FFFFFF" d="M32.222,25.62c-2.384-0.036-4.16,0.62-5.352,1.983c-1.18,1.35-1.91,3.235-2.165,5.656
	c-0.122,1.18-0.109,2.262,0.049,3.235c0.158,0.985,0.45,1.849,0.9,2.579c0.45,0.742,1.058,1.326,1.8,1.764
	c0.766,0.45,1.666,0.705,2.737,0.778c0.572,0.036,1.082,0.061,1.496,0.061c0.426,0,0.803-0.024,1.119-0.085
	c0.28-2.907,0.547-5.802,0.815-8.672c1.764,0.073,3.552,0.134,5.352,0.195c-0.353,4.16-0.718,8.356-1.095,12.613
	c-0.681,0.231-1.764,0.438-3.235,0.645c-1.447,0.195-3.223,0.219-5.279,0.049c-1.739-0.134-3.284-0.547-4.622-1.228
	c-1.314-0.681-2.384-1.593-3.223-2.749c-0.839-1.143-1.423-2.506-1.764-4.087c-0.341-1.581-0.377-3.333-0.158-5.303
	c0.219-1.97,0.705-3.71,1.423-5.181c0.73-1.496,1.642-2.749,2.737-3.783c1.095-1.034,2.347-1.8,3.746-2.335
	c1.411-0.535,2.907-0.803,4.476-0.803c1.07,0,2.031,0.073,2.895,0.231c0.864,0.158,1.605,0.328,2.226,0.523
	c0.632,0.195,1.143,0.414,1.545,0.62c0.401,0.207,0.693,0.365,0.864,0.487c-0.645,1.46-1.289,2.907-1.922,4.366
	c-0.693-0.414-1.496-0.766-2.396-1.082C34.302,25.802,33.292,25.632,32.222,25.62L32.222,25.62z"/>
<g>
	<path fill="#202C59" d="M104.741,50.474c-1.188,1.688-3.047,3.006-5.581,3.952c-2.532,0.946-5.367,1.419-8.502,1.419
		c-3.173,0-5.994-0.761-8.461-2.282c-2.468-1.521-4.379-3.674-5.733-6.457c-1.354-2.783-2.042-5.974-2.06-9.574v-5.121
		c0-5.622,1.419-10.062,4.258-13.317c2.839-3.257,6.652-4.885,11.439-4.885c4.175,0,7.533,1.062,10.075,3.187
		c2.542,2.125,4.054,5.052,4.537,8.781h-3.423c-0.501-2.978-1.711-5.234-3.632-6.77c-1.92-1.535-4.43-2.303-7.528-2.303
		c-3.785,0-6.782,1.346-8.99,4.039c-2.208,2.693-3.312,6.49-3.312,11.393v4.79c0,3.083,0.524,5.808,1.572,8.176
		c1.048,2.367,2.551,4.201,4.509,5.501s4.207,1.949,6.75,1.949c2.95,0,5.483-0.463,7.598-1.392c1.373-0.612,2.394-1.326,3.062-2.143
		V38.951H90.435v-2.895h14.306V50.474z"/>
	<path fill="#202C59" d="M129.595,38.395h-11.773v16.894h-3.451V14.765h13.165c4.323,0,7.7,1.047,10.131,3.142
		c2.431,2.094,3.646,5.022,3.646,8.784c0,2.595-0.761,4.883-2.282,6.867c-1.521,1.983-3.562,3.354-6.123,4.114l10.131,17.254v0.362
		h-3.646L129.595,38.395z M117.822,35.5h10.493c2.876,0,5.186-0.817,6.93-2.453c1.744-1.635,2.616-3.754,2.616-6.356
		c0-2.861-0.909-5.082-2.728-6.662c-1.819-1.58-4.37-2.37-7.654-2.37h-9.658V35.5z"/>
	<path fill="#202C59" d="M172.512,43.905h-18.397l-4.175,11.383h-3.59l15.335-40.523h3.256l15.335,40.523h-3.562L172.512,43.905z
		 M155.172,41.011h16.254l-8.127-22.071L155.172,41.011z"/>
	<path fill="#202C59" d="M196.03,50.278l0.223,0.863l0.25-0.863l12.747-35.513h3.758l-15.085,40.523h-3.284l-15.085-40.523h3.729
		L196.03,50.278z"/>
	<path fill="#202C59" d="M223.139,55.288h-3.424V14.765h3.424V55.288z"/>
	<path fill="#202C59" d="M260.823,17.66h-13.889v37.628h-3.423V17.66h-13.86v-2.895h31.172V17.66z"/>
	<path fill="#202C59" d="M279.693,36.863l12.385-22.098h3.952l-14.64,25.271v15.252h-3.424V40.036l-14.611-25.271h4.063
		L279.693,36.863z"/>
</g>
<g>
	<path fill="#64A9CC" d="M333.696,43.599l5.455-28.833h8.321l-8.989,40.523h-8.405l-6.597-27.108l-6.596,27.108h-8.405l-8.99-40.523
		h8.322l5.482,28.778l6.68-28.778h7.069L333.696,43.599z"/>
	<path fill="#64A9CC" d="M360.331,41.011v14.277h-8.35V14.765h15.809c3.043,0,5.72,0.557,8.029,1.67
		c2.311,1.113,4.087,2.695,5.33,4.745c1.243,2.051,1.865,4.384,1.865,7c0,3.971-1.359,7.102-4.078,9.393
		c-2.718,2.292-6.48,3.438-11.285,3.438H360.331z M360.331,34.248h7.459c2.208,0,3.892-0.519,5.052-1.559
		c1.159-1.039,1.739-2.523,1.739-4.453c0-1.985-0.584-3.59-1.753-4.815s-2.783-1.855-4.843-1.893h-7.654V34.248z"/>
</g>
</svg>
