<?xml version="1.0" encoding="utf-8"?>
<!-- Generator: Adobe Illustrator 25.3.1, SVG Export Plug-In . SVG Version: 6.00 Build 0)  -->
<svg version="1.1" xmlns="http://www.w3.org/2000/svg" xmlns:xlink="http://www.w3.org/1999/xlink" x="0px" y="0px"
	 viewBox="481.578 73.793 244.276 464.54" enable-background="new 481.578 73.793 244.276 464.54" xml:space="preserve">
<g id="Layer_1">
	<g id="_105815792">
		<path id="_105036856" fill="#65A9CC" d="M512.499,221.388c-2.013-4.529-3.331-11.112-4.024-15.949
			c-2.02-14.077-0.922-28.68,2.252-42.5c3.363-14.643,10.717-27.637,21.928-37.669c4.212-3.769,10.524-8.361,15.863-10.5l0.31-0.124
			l0.331-0.042c23.557-2.968,64.651-2.163,83.344,14.331c14.648,12.923,22.946,24.738,25.288,44.26
			c0.375,3.131,0.629,6.275,0.936,9.414c0.872,8.956,0.444,21.2-2.104,29.986l-0.203,0.702l-0.536,0.492
			c-4.058,3.723-11.267,7.44-16.202,9.631c-15.954,7.082-34.089,10.3-51.426,11.198c-17.858,0.925-36.35,0.211-53.948-3.166
			c-5.826-1.117-13.308-2.774-18.83-5.092l-0.956-0.4L512.499,221.388z"/>
		<path id="_105044656" fill="#DEEDF6" d="M514.877,220.331c0,0-9.663-21.757-1.613-56.809c8.049-35.052,36.22-46.334,36.22-46.334
			s57.551-7.253,81.295,13.698c23.744,20.951,23.744,35.454,25.353,51.974c1.609,16.52-2.012,29.009-2.012,29.009
			s-19.318,17.729-66.002,20.146c-46.683,2.417-71.635-8.058-71.635-8.058L514.877,220.331L514.877,220.331z"/>
		<path id="_105046936" fill="#191919" d="M554.227,193.61l2.679,27.273c0.492,5.012-7.195,2.1-8.724,1.306
			c-4.598-2.391-7.068-6.863-8.09-11.806c-1.714-8.292,3.132-15.255,11.452-16.403L554.227,193.61z"/>
		<path id="_105042472" fill="#D3AE8A" d="M551.9,196.561c0,0-11.673,1.611-9.257,13.295c2.415,11.684,11.671,11.281,11.671,11.281
			L551.9,196.561z"/>
		<path id="_105036088" fill="#191919" d="M673.903,178.657c7.796-0.523,14.083,4.102,13.81,13.146
			c-0.19,6.317-2.7,11.661-7.505,15.753c-3.048,2.597-5.686,3.669-9.104,5.373c-1.134,1.125-6.144,10.834-7.238,12.642
			c-4.76,7.849-10.607,14.903-18.397,19.915c-10.256,6.602-25.72,11.823-38.052,12.697c-19.441,1.265-32.391,0.667-47.296-14.255
			c-14.915-14.933-18.655-56.072-14.593-75.894c4.215-20.566,14.904-35.231,34.782-43.192c23.317-9.337,57.315-11.031,75.368,9.564
			C665.454,145.561,672.834,163.302,673.903,178.657L673.903,178.657z"/>
		<path id="_105043720" fill="#FFCC99" d="M607.238,255.585c-15.494,1.008-29.781,2.016-45.275-13.497
			c-15.494-15.512-17.104-57.818-13.885-73.53c3.22-15.713,11.064-32.433,33.198-41.297c22.136-8.865,55.137-10.88,72.441,8.863
			c17.305,19.743,17.708,45.529,17.708,45.529s14.086-3.223,13.683,10.072c-0.402,13.295-12.073,17.326-15.293,18.937
			c-3.221,1.611-8.854,21.755-25.758,32.634C627.155,254.174,607.238,255.585,607.238,255.585L607.238,255.585z"/>
		<path id="_105045352" fill="#D3AE8A" d="M588.912,212.003c0,0,13.803-1.131,23.078,6.57c9.276,7.702,11.538,18.122,11.538,16.763
			c0-1.36-2.261-25.372-2.714-26.956c-0.453-1.585-5.656-7.475-5.656-7.475s-9.963,5.208-16.072,7.021
			C592.975,209.739,588.912,212.003,588.912,212.003z"/>
		<path id="_105045280" fill="#D3AE8A" d="M547.753,170.386c0.105-0.642,0.211-1.256,0.329-1.828
			c3.216-15.72,11.058-32.428,33.192-41.299c1.247-0.499,2.534-0.974,3.848-1.427c1.846-0.135,3.506-0.26,4.919-0.356
			c13.123-0.907,28.511,0.453,30.998,0.68c2.487,0.227,15.839,11.099,20.815,15.629c4.977,4.531,14.48,23.557,14.48,23.557
			S650,184.822,642.76,193.43c-7.239,8.608-5.656-2.264-5.656-12.458c0-10.194-6.788-16.083-15.159-19.254
			c-8.371-3.171-30.997,5.437-33.26,5.21c-2.263-0.227,1.81-4.304,1.81-4.304s-4.752,1.131-25.114,6.342
			C557.973,170.862,552.161,170.992,547.753,170.386L547.753,170.386z"/>
		<path id="_105044560" fill="#FFDFBF" d="M605.628,140.153c5.058,0,9.157,2.932,9.157,6.548c0,3.615-4.1,6.547-9.157,6.547
			c-5.055,0-9.155-2.932-9.155-6.547C596.472,143.085,600.573,140.153,605.628,140.153L605.628,140.153z"/>
		<path id="_105043504" fill="#FFDFBF" d="M620.822,160.903c4.426,6.648,13.079,15.511,13.683,29.814
			c0.604,14.303-4.026,21.355,5.029,19.541c9.056-1.813,8.853-18.937,5.836-29.412c-2.31-8.02-8.785-20.557-12.708-26.651
			C626.731,144.985,613.413,149.776,620.822,160.903z"/>
		<path id="_105040888" fill="#EFD2B6" d="M620.827,160.905l0.388,0.575c0.253,0.071,0.499,0.15,0.731,0.238
			c8.371,3.171,15.158,9.059,15.158,19.254c0,10.194-1.583,21.066,5.657,12.458c1.379-1.638,2.719-3.672,3.994-5.89
			c-0.325-2.375-0.801-4.657-1.388-6.691c-2.308-8.023-8.784-20.555-12.709-26.656C626.731,144.987,613.413,149.775,620.827,160.905
			L620.827,160.905z"/>
		<path id="_105046216" fill="#191919" d="M555.923,128.47c-9.658,9.266-27.366,15.712-27.366,15.712s13.278,18.129,34.609,16.921
			c21.33-1.208,41.452-14.503,41.452-14.503s-7.245,8.864-10.866,10.476c-3.622,1.61,4.428,2.818,13.281,0.401
			c8.854-2.417,18.914-5.235,22.134-4.028c3.221,1.208,12.879,17.728,13.281,28.203c0.403,10.475-3.22,16.92,0,15.712
			c3.221-1.208,9.659-14.102,14.488-14.102s19.318-4.834,19.318-4.834s-0.807-41.903-19.318-52.378
			c-18.513-10.476-23.745-8.46-23.745-8.46C617.286,105.15,570.362,114.618,555.923,128.47L555.923,128.47z"/>
		<path id="_105047608" fill="#787878" d="M598.056,150.382c4.104-2.163,6.564-3.781,6.564-3.781s-2.134,2.599-4.658,5.24
			c1.558,0.88,3.528,1.408,5.667,1.408c5.058,0,9.157-2.932,9.157-6.547c0-3.616-4.1-6.548-9.157-6.548
			c-5.056,0-9.155,2.932-9.155,6.548C596.473,148.066,597.055,149.333,598.056,150.382L598.056,150.382z"/>
		<path id="_105037216" fill="#787878" d="M618.647,154.45c4.719-1.084,8.708-1.68,10.521-1
			c3.221,1.208,12.879,17.728,13.281,28.203c0.403,10.475-3.22,16.92,0,15.712c1.211-0.454,2.876-2.566,4.742-5.02
			c-0.17-4.036-0.847-8.111-1.821-11.499c-2.31-8.02-8.785-20.557-12.708-26.651C628.064,147.054,619.022,148.328,618.647,154.45
			L618.647,154.45z"/>
		<path id="_105037144" fill="#191919" d="M553.807,197.128c0.019,0.716-0.546,1.314-1.262,1.333
			c-0.715,0.018-1.313-0.546-1.332-1.262c-0.001-0.057-0.784-20.618,19.086-10.561c0.641,0.322,0.898,1.105,0.576,1.745
			c-0.322,0.64-1.104,0.897-1.745,0.576C553.186,180.887,553.807,197.085,553.807,197.128L553.807,197.128z"/>
		<path id="_105036808" fill="#191919" d="M600.591,186.765c-0.041,0.715-0.658,1.261-1.373,1.22
			c-0.716-0.042-1.262-0.658-1.221-1.374c0.003-0.054,0.908-19.937,21.462-8.099c0.62,0.356,0.834,1.151,0.479,1.771
			c-0.356,0.62-1.151,0.834-1.771,0.478C601.297,171.045,600.593,186.722,600.591,186.765z"/>
		<path id="_105042544" fill="#191919" d="M582.798,201.776c0.679,0.225,1.048,0.96,0.823,1.638
			c-0.225,0.679-0.96,1.048-1.639,0.823c-0.029-0.009-11.3-3.435-8.674-8.112c1.966-3.5,8.369-7.6,8.385-7.609
			c0.604-0.384,1.406-0.206,1.791,0.397c0.384,0.603,0.206,1.406-0.397,1.791c-0.015,0.009-5.856,3.748-7.511,6.692
			C574.584,199.162,582.775,201.768,582.798,201.776L582.798,201.776z"/>
		<path id="_105039328" fill="#191919" d="M601.206,207.74c0,0,8.904,2.066,13.734,6.9c4.829,4.833,6.086,9.215,6.086,9.215
			s8.952-7.758,9.354-19.238c0.401-11.48-3.219-17.325-3.219-17.325s-6.441,3.225-11.672,9.066
			C610.258,202.2,601.001,207.639,601.206,207.74z"/>
		<path id="_105047680" fill="#FF99CC" d="M614.385,232.419c0,0-4.43-6.648-1.008-15.714c3.422-9.066,17.104-11.886,17.104-11.886
			S633.701,222.548,614.385,232.419z"/>
		<path id="_105040624" fill="#C785A6" d="M620.731,208.694c4.721-2.832,9.747-3.871,9.747-3.871s0.779,4.314-0.745,9.869
			C626.632,210.18,623.305,208.869,620.731,208.694z"/>
		<path id="_105044632" fill="#191919" d="M577.516,216.365c-0.701,0.143-1.389-0.311-1.532-1.012
			c-0.143-0.702,0.312-1.39,1.013-1.533c0.066-0.012,22.977-4.563,33.768-14.972c5.571-5.374,9.225-8.828,11.708-10.723
			c3.137-2.396,4.898-2.624,6.263-1.088l0.032,0.04l0.013,0.016l0.02,0.026c0.086,0.105,0.165,0.224,0.238,0.355l0.002-0.002
			c0.904,1.611,2.802,9.083,2.999,17.318c0.196,8.331-1.302,17.582-7.186,22.81l0.002,0.003c-0.81,0.718-1.708,1.366-2.695,1.92
			c-15.38,8.646-20.023,5.215-20.035,5.208c-0.609-0.379-0.797-1.182-0.419-1.791c0.379-0.609,1.182-0.797,1.791-0.418
			c0.009,0.006,3.396,2.602,17.393-5.266c0.812-0.456,1.559-0.996,2.236-1.597l0.002,0.002l0.003-0.002
			c5.185-4.604,6.497-13.098,6.313-20.806c-0.185-7.803-1.871-14.683-2.672-16.109l0.001-0.001l-0.001-0.003
			c-0.259-0.238-1.018,0.151-2.722,1.451c-2.396,1.828-5.992,5.229-11.486,10.529C601.223,211.66,577.585,216.351,577.516,216.365z"
			/>
		<path id="_105042208" fill="#337497" d="M563.927,266.794c1.511,3.408,9.257,20.862,11.675,25.597l0.976,0.984l-0.592,1.723
			c-5.544,16.119-22.569,57.491-40.6,61.48c-8.032,1.776-16.936,1.771-24.399-2.067c-4.615-2.372-9.355-6.827-9.918-12.27
			c-0.804-7.793,5.195-18.101,13.668-18.403c3.227-0.116,6.479-0.21,9.717-0.225c9.062-7.359,17.936-20.162,22.562-30.441
			c3.696-8.214,8.416-18.063,11.194-26.65l5.717-17.818V266.794L563.927,266.794z"/>
		<path id="_105046816" fill="#4A99C4" d="M573.217,294.146c0,0-19.006,55.27-38.464,59.573
			c-19.457,4.304-30.093-5.209-30.77-11.778c-0.678-6.57,4.523-14.949,10.86-15.177c6.336-0.227,10.635-0.227,10.635-0.227
			s14.934-11.552,24.21-32.165c9.275-20.613,11.311-26.957,11.311-26.957S572.992,293.919,573.217,294.146L573.217,294.146z"/>
		<path id="_105039976" fill="#E3E3E4" d="M496.689,343.819c-1.871-4.08,0.181-13.449,2.269-16.138
			c4.257-5.479,16.167-11.856,23.19-10.6c8.966,1.603,11.072,15.531,11.68,23.033c0.921,11.338-16.732,18.277-26.083,15.749
			c-3.89-1.052-7.253-3.148-9.267-6.714C497.314,347.085,497.243,345.86,496.689,343.819z"/>
		<path id="_105041968" fill="#FFFFFF" d="M499.457,342.845c0.453,1.586,0.68,7.93,9.05,10.193c8.371,2.266,23.08-4.303,22.4-12.685
			c-0.68-8.381-2.942-19.253-9.277-20.386c-6.335-1.134-17.194,5.436-20.362,9.514C498.1,333.559,499.005,342.62,499.457,342.845
			L499.457,342.845z"/>
		<path id="_105038536" fill="#E3E3E4" d="M516.124,310.249c4.731-3.977,13.885-8.672,18.711-2.231
			c3.565,4.759,9.735,19.028,4.044,23.722c-3.687,3.039-9.575,5.918-14.2,3.214c-3.716-2.173-8.124-17.059-9.477-21.63l-0.545-1.839
			L516.124,310.249L516.124,310.249z"/>
		<path id="_105047032" fill="#FFFFFF" d="M518.011,312.491c5.657-4.757,11.766-6.342,14.481-2.717
			c2.716,3.623,8.37,16.535,4.525,19.706c-3.846,3.171-8.146,4.53-10.86,2.944C523.444,330.839,518.011,312.491,518.011,312.491z"/>
		<path id="_105042424" fill="#E3E3E4" d="M481.661,321.165c2.061-9.633,18.566-24.968,28.656-24.968
			c10.558,0,12.825,5.777,15.067,15.161c1.57,6.578,8.629,23.514,5.627,29.224c-3.374,6.416-27.198,14.908-34.164,13.514
			c-11.928-2.385-14.632-22.54-15.246-32.13l-0.023-0.403L481.661,321.165z"/>
		<path id="_105045136" fill="#FFFFFF" d="M484.526,321.78c2.036-9.514,18.324-22.652,25.793-22.652
			c7.468,0,9.728,2.49,12.218,12.912c2.489,10.42,8.146,22.877,5.883,27.181c-2.263,4.304-24.209,13.363-30.997,12.005
			C490.635,349.868,485.658,339.447,484.526,321.78z"/>
		<path id="_105038080" fill="#E3E3E4" d="M487.477,322.026c0.46,6.502,2.696,24.762,10.518,26.328
			c1.865,0.373,6.228-0.598,10.973-2.137c-2.276-1.39-4.994-3.597-7.734-7.108c-5.259-6.739-6.503-21.142-6.793-27.29
			C490.985,315.347,488.245,319.153,487.477,322.026z"/>
		<path id="_105035920" fill="#E3E3E4" d="M660.07,403.294c3.101-2.844,8.073-5.119,12.271-3.704
			c7.81,2.634,18.747,21.52,22.218,28.555c2.744,5.56,10.018,18.185,4.799,23.972c-2.228,2.468-6.394,3.723-9.626,3.958
			l-1.833,0.132l-29.56-51.326L660.07,403.294L660.07,403.294z"/>
		<path id="_105820904" fill="#FFFFFF" d="M662.049,405.45c0,0,4.977-4.564,9.357-3.086c4.38,1.477,13.705,13.248,20.528,27.074
			c6.822,13.827,7.607,18.099,5.249,20.713c-2.359,2.615-7.662,2.999-7.662,2.999L662.049,405.45z"/>
		<path id="_105814712" fill="#E3E3E4" d="M650.872,437.596l-0.805-0.805l0.619-29.591l0.946-0.848
			c3.768-3.375,9.815-6.346,14.942-5.586c5.72,0.85,14.264,15.934,16.991,20.62c3.263,5.607,9.232,15.747,11.163,21.822
			c3.425,10.784-6.05,15.539-15.408,15.709C666.886,459.141,657.813,446.115,650.872,437.596L650.872,437.596z"/>
		<path id="_105815120" fill="#FFFFFF" d="M653.02,435.603c0.792,0.793,13.688,20.613,26.246,20.387
			c12.557-0.227,14.252-6.911,12.669-11.893c-1.583-4.982-19.684-39.525-25.792-40.433c-6.108-0.905-12.557,4.87-12.557,4.87
			L653.02,435.603z"/>
		<path id="_105816944" fill="#28353C" d="M605.121,377.048c25.341,0.453,62.448,4.075,70.141-1.133
			c7.692-5.209,2.263-60.707,4.299-84.944c2.036-24.237,9.498-38.282,0.901-44.17c-8.598-5.889-80.097-5.887-90.957-0.451
			c-10.859,5.435-9.504,120.504-4.525,126.394C589.959,378.634,605.121,377.048,605.121,377.048L605.121,377.048z"/>
		<path id="_105826568" fill="#354C58" d="M680.007,254.051c-2.714-5.89-24.886-7.701-27.602-4.984
			c-2.716,2.718-14.029,38.962-11.767,65.236c2.263,26.275-2.709,52.098-1.69,56.062c1.019,3.965,30.77,4.529,33.146,1.133
			c2.377-3.397,3.39-30.467,2.031-54.93c-1.358-24.464,3.514-46.776,4.983-53.006C680.579,257.335,680.691,256.881,680.007,254.051z
			"/>
		<path id="_105817712" fill="#5D6F78" d="M677.237,255.077c-2.154-3.301-19.25-5.354-22.805-3.844
			c-0.791,1.207-1.812,4.019-2.731,6.879c5.688-0.638,16.86-0.733,16.321,8.471c-0.724,12.322-4.705,32.255-5.792,59.075
			c-1.086,26.82,1.449,38.418-2.896,40.229c-3.164,1.317-12.649,0.715-17.581,0.289c-0.062,1.177-0.085,2.171-0.04,2.851
			c4.18,2.01,24.266,2.391,28.08,0.57c2.856-6.545,1.821-45.424,1.409-52.867c-0.976-17.562,1.007-36.681,5.057-53.84
			C676.941,260.005,677.814,257.89,677.237,255.077z"/>
		<path id="_105821312" fill="#337497" d="M538.294,356.919l46.607,19.402l0.29,1.547c1.657,8.675,7.807,18.331,16.273,21.592
			c12.976,4.997,34.529,4.786,48.498,4.786c7.317,0,9.471,1.334,13.524,7.423c5.055,7.594,3.712,25.429-2.856,32.006
			c-5.653,5.66-22.075,5.53-29.416,5.045c-16.604-1.099-33.667-5.812-48.604-13.089c-2.354-1.147-4.61-2.483-6.759-3.979
			c-20.444-14.229-33.777-46.396-37.835-70.192L538.294,356.919L538.294,356.919z"/>
		<path id="_105816272" fill="#65A9CC" d="M540.904,360.967c0,0,9.503,55.723,42.989,72.031
			c33.486,16.31,68.331,14.951,74.666,8.608c6.335-6.344,6.11-22.878,2.491-28.314c-3.619-5.438-4.978-6.117-11.087-6.117
			c-6.107,0-34.845,0.682-49.55-4.982c-14.706-5.663-18.1-23.783-18.1-23.783L540.904,360.967z"/>
		<path id="_105824360" fill="#4A99C4" d="M544.834,365.8c5.132,23.416,18.881,54.111,40.342,64.565
			c13.633,6.639,29.149,11.057,44.338,12.348l3.756-8.326c0,0-17.377,1.814-41.631-5.798c-24.255-7.611-33.306-37.692-33.306-37.692
			s4.705,1.811,20.272,2.899c2.32,0.162,4.761,0.173,7.248,0.084c-2.892-4.076-4.99-8.74-6.085-13.365L544.834,365.8L544.834,365.8z
			"/>
		<path id="_105825944" fill="#83BAD7" d="M659.976,418.221c-0.334-1.31-0.785-2.439-1.363-3.308
			c-2.936-4.409-3.394-4.811-8.649-4.811c-9.267,0-21.201,0.064-32.237-1.172c4.149,3.229,9.053,5.74,14.819,6.973
			C642.695,418.07,652.132,418.513,659.976,418.221z"/>
		<path id="_105813536" fill="#E3E3E4" d="M657.295,522.301l27.218-60.447l2.269,0.431c2.841,0.54,7.66,1.701,10.016,3.273
			c3.044,2.032,5.391,9.087,6.258,12.433c2.104,8.123,2.24,16.819,0.77,25.061c-2.393,13.413-13.808,37.496-30.779,35.118
			c-7.76-1.089-14.322-7.195-15.606-14.997L657.295,522.301L657.295,522.301z"/>
		<path id="_105823688" fill="#FFFFFF" d="M660.331,522.697c0,0,1.81,10.984,13.123,12.571
			c11.313,1.586,24.095-13.702,27.489-32.732c3.394-19.028-3.395-32.957-5.77-34.543c-2.375-1.587-8.936-2.832-8.936-2.832
			L660.331,522.697L660.331,522.697z"/>
		<path id="_105816080" fill="#E3E3E4" d="M651.425,477.629l22.345-21.524l1.626,0.467c3.492,1.007,9.457,3.054,12.229,5.295
			c8.974,7.257,10.193,22.54,9.797,33.081c-0.365,9.706-3.425,19.066-9.194,26.909c-3.738,5.083-9.556,10.558-15.669,12.569
			c-5.703,1.877-11.571,0.026-15.998-3.811c-6.004-5.202-9.023-13.385-10.317-21.02c-1.61-9.503-0.802-23.509,5.022-31.74
			L651.425,477.629L651.425,477.629z"/>
		<path id="_105814544" fill="#FFFFFF" d="M653.655,479.546c0,0-7.692,10.872-4.525,29.56c3.168,18.688,14.255,25.256,22.513,22.538
			c8.259-2.717,22.06-15.741,22.852-36.808c0.792-21.066-5.771-28.314-8.712-30.693c-2.94-2.378-11.199-4.757-11.199-4.757
			L653.655,479.546L653.655,479.546z"/>
		<path id="_105826520" fill="#337497" d="M576.755,370.426l56.32-24.897l1.377,1.992c2.023,2.924,2.315,8.459,2.097,11.82
			c-0.188,2.947-0.931,6.301-1.401,9.244c-0.756,4.73-1.348,9.463-1.593,14.248c-0.587,11.365,0.733,23.27,6.463,33.31
			c9.713,17.015,22.173,26.998,37.247,38.54c3.541,2.711,4.259,8.054,3.91,12.197c-0.562,6.667-3.756,13.2-7.61,18.564
			c-5.089,7.082-14.591,14.021-23.756,13.677l-0.729-0.028l-0.63-0.364c-12.109-7.019-35.208-43.875-41.994-55.162
			c-9.896-16.46-19.407-34.658-25.39-52.979c-1.646-5.047-3.949-12.761-4.214-18.152L576.755,370.426z"/>
		<path id="_105821240" fill="#65A9CC" d="M574.529,373.017c0,0,6.383,22.381,34.438,69.042
			c28.055,46.662,40.952,54.137,40.952,54.137s11.99,0.451,21.268-12.459c9.277-12.909,8.143-23.783,4.298-26.727
			c-3.845-2.944-25.339-17.214-38.01-39.414c-12.671-22.199-4.301-51.42-3.848-58.441c0.453-7.022-1.582-9.965-1.582-9.965
			L574.529,373.017L574.529,373.017z"/>
		<path id="_105823496" fill="#83BAD7" d="M673.742,473.043c0.828-2.177,1.407-4.415,1.597-6.655
			c0.155-1.844,0.032-5.779-1.633-7.056c-5.517-4.223-10.648-7.92-15.877-12.637c-8.869-8.001-16.962-17.25-22.896-27.65
			c-6.294-11.024-7.873-24.018-7.228-36.515c0.258-4.994,0.872-9.934,1.659-14.867c0.337-2.109,0.84-4.507,1.138-6.745
			c-5.745,0.351-9.903,0.619-9.903,0.619s-7.966,18.845,2.532,51.103C632.053,440.054,661.363,461.963,673.742,473.043
			L673.742,473.043z"/>
		<path id="_105813488" fill="#337497" d="M637.592,252.481h3.348l-1.111,3.759c-3.29,11.23-4.321,29.005-4.86,40.533
			c-0.452,9.649-0.32,19.162,0.74,28.766c0.671,6.078,1.821,12.186,2.263,18.27c0.107,1.488,0.168,2.98,0.168,4.473
			c0,20.212-16.46,34.352-35.578,36.881c-11.357,1.504-23.528,1.254-34.821-0.695c-6.267-1.083-17.298-3.648-21.938-8.291
			c-5.352-5.359-7.498-11.592-8.468-19.02c-2.065-15.828,1.633-36.198,4.963-51.623c2.642-12.234,12.659-52.547,23.701-61.051
			l0.447-0.346l0.546-0.154C587.922,238.09,617.705,244.449,637.592,252.481z"/>
		<path id="_105818144" fill="#65A9CC" d="M567.786,246.801c0,0-11.768,9.063-22.625,59.348
			c-10.858,50.285-3.168,62.069,2.714,67.954c3.949,3.955,15.922,12.064,30.857,13.134c7.289,0.521,10.332,0.588,18.194-0.448
			c23.979-3.165,38.284-25.823,38.284-38.509c0-12.686-4.525-22.65-3.168-51.645c1.358-28.994,4.977-41.226,4.977-41.226
			S596.747,238.647,567.786,246.801L567.786,246.801z"/>
		<path id="_105814064" fill="#4A99C4" d="M633.504,257.184c-0.451-0.169-0.979-0.365-1.597-0.588
			c-3.517-1.27-7.089-2.416-10.682-3.453c-10.437-3.005-21.568-5.219-32.436-5.596c-6.515-0.225-13.25,0.211-19.573,1.897
			c-2.328,2.267-5.266,7.852-6.502,10.388c-6.911,14.159-11.386,31.625-14.692,46.934c-3.165,14.656-6.843,34.582-4.88,49.633
			c0.798,6.099,2.399,11.229,6.804,15.636c4.56,4.567,11.818,8.224,18.938,10.343c-7.596-4.447-14.059-10.48-17.068-18.664
			c-10.136-27.543,7.601-75.747,7.601-75.747s0.363,0,21.359-1.088c20.995-1.088,37.65-6.885,37.65-6.885l13.238-13.252
			C632.172,263.353,632.776,260.114,633.504,257.184L633.504,257.184z"/>
		<path id="_105814400" fill="#83BAD7" d="M621.256,370.947c0.541-0.571,1.069-1.151,1.584-1.753
			c4.536-5.275,9.442-13.736,9.442-20.913c0-1.351-0.056-2.7-0.152-4.05c-0.437-5.998-1.579-12.051-2.244-18.051
			c-1.095-9.909-1.234-19.727-0.768-29.682c0.213-4.53,0.505-9.971,0.967-15.61l-1.702,0.024c0,0-5.793,21.021-3.259,41.137
			c2.534,20.114,4.887,26.806-0.905,41.302C623.097,366.157,622.117,368.685,621.256,370.947L621.256,370.947z"/>
		<path id="_105814976" fill="#528AA6" d="M585.618,293.593c0.813,0.265,1.605,0.583,2.365,0.952
			c2.878-2.06,7.954-5.729,8.894-5.493c0.941,0.237,4.041,3.157,4.041,3.157s3.059,3.125,3.304,4.081
			c0.246,0.955-3.912,5.94-6.275,8.803c0.368,0.848,0.684,1.736,0.942,2.656c3.646,0.593,10.214,1.636,10.703,2.59
			c0.489,0.955,0.348,5.83,0.348,5.83s-0.322,4.955-0.912,5.902c-0.59,0.948-7.398,1.482-11.195,1.81
			c-0.386,0.944-0.834,1.848-1.33,2.718c2.045,3.273,5.754,9.132,5.367,10.194c-0.386,1.062-4.075,4.38-4.075,4.38
			s-3.785,3.135-4.84,3.328c-1.056,0.193-5.889-4.543-8.584-7.149c-0.875,0.344-1.771,0.644-2.69,0.872
			c-0.852,3.711-2.313,10.265-3.238,10.656c-0.926,0.391-5.323-0.179-5.323-0.179s-4.274-0.727-5.039-1.353
			c-0.765-0.627-0.859-7.106-0.944-10.758c-0.769-0.408-1.495-0.86-2.193-1.358c-2.747,1.845-7.452,5.034-8.231,4.64
			c-0.778-0.395-3.096-3.82-3.096-3.82s-2.152-3.445-2.26-4.39c-0.107-0.944,3.505-5.362,5.577-7.931
			c-0.235-0.812-0.427-1.651-0.572-2.51c-2.756-0.658-7.423-1.758-7.674-2.58c-0.251-0.824,0.263-4.884,0.263-4.884
			s0.633-3.993,1.107-4.765c0.474-0.771,5.297-1.463,8.138-1.887c0.349-0.792,0.743-1.569,1.169-2.316
			c-1.351-2.525-3.68-6.786-3.346-7.618c0.334-0.832,3.168-3.688,3.168-3.688s2.925-2.787,3.73-3.065
			c0.804-0.279,4.449,2.787,6.607,4.577c0.753-0.379,1.524-0.723,2.32-1.026c0.792-3.122,2.119-8.517,2.927-8.983
			c0.808-0.465,4.772-0.767,4.772-0.767s4.045-0.161,4.81,0.228C585.116,284.838,585.418,290.363,585.618,293.593L585.618,293.593z"
			/>
		<path id="_105817640" fill="#337497" d="M622.191,269.638c2.861-11.232,12.012-21.556,22.754-11.118
			c1.506,1.462,2.765,3.083,3.858,4.871c2.31,3.785,3.864,8.124,6,12.054c3.265,6.004,7.516,10.999,12.499,15.652
			c1.041,0.972,2.095,1.931,3.158,2.878c11.462,10.226,35.104,26.224,35.104,42.98c0,17.034-18.292,26.308-33.36,22.073
			c-14.635-4.111-39.393-48.271-45.138-62.424c-2.949-7.271-5.802-18.541-4.95-26.554l0.022-0.21L622.191,269.638L622.191,269.638z"
			/>
		<path id="_105816656" fill="#65A9CC" d="M621.953,266.012c2.942-11.554,13.259-12.867,20.952-5.392
			c7.692,7.475,5.658,16.989,22.399,32.618c16.742,15.629,37.332,28.314,37.332,43.717s-16.741,22.878-29.639,19.253
			c-10.479-2.943-28.578-31.611-38.148-50.033c-2.208-4.246-9.398-15.027-10.497-17.741
			C618.472,273.94,621.953,266.012,621.953,266.012z"/>
		<path id="_105816584" fill="#83BAD7" d="M684.162,313.376c-6.427-5.904-13.353-11.242-17.6-15.031
			c-1.097-0.977-2.184-1.965-3.256-2.966c-5.45-5.089-10.08-10.573-13.648-17.136c-2.077-3.821-3.628-8.155-5.854-11.799
			c-0.836-1.368-1.789-2.605-2.941-3.725c-0.889-0.863-1.804-1.578-2.718-2.152l-1.619,1.318c0,0,1.267,10.509,11.766,27.181
			c10.498,16.672,12.308,25.552,12.308,25.552L684.162,313.376L684.162,313.376z"/>
		<path id="_105822536" fill="#E3E3E4" d="M688.093,316.369c7.585-1.026,16.69,1.565,20.333,8.857
			c7.055,14.123,2.956,34.816-12.908,40.747c-17.352,6.487-31.172,0.855-33.349-18.499
			C660.433,332.05,672.727,317.362,688.093,316.369z"/>
		<path id="_105818456" fill="#FFFFFF" d="M688.383,319.286c0,0,12.896-1.809,17.422,7.25c4.525,9.059,5.654,30.35-11.313,36.693
			c-16.969,6.344-27.604,0-29.413-16.082C663.268,331.065,677.069,319.966,688.383,319.286L688.383,319.286z"/>
		<path id="_105812480" fill="#E3E3E4" d="M656.302,331.149c-8.35-2.554-14.793-11.977-12.124-20.651
			c2.041-6.638,24.244-24.272,31.192-20.247c4.718,2.733,9.189,9.115,7.435,14.732c-1.562,5.006-8.961,13.934-12.626,17.6
			c-3.367,3.364-7.482,6.721-11.941,8.488l-0.955,0.377l-0.98-0.299H656.302z"/>
		<path id="_105822896" fill="#FFFFFF" d="M657.159,328.349c-8.146-2.491-11.993-11.1-10.182-16.989
			c1.811-5.889,22.626-21.064,26.925-18.574c4.299,2.491,7.239,7.702,6.108,11.326C678.88,307.735,668.019,324.044,657.159,328.349
			L657.159,328.349z"/>
		<path id="_105815840" fill="#E3E3E4" d="M655.79,311.352c-0.2-0.394-0.408-0.816-0.619-1.265c-0.441-0.93-0.756-1.98-0.976-3.108
			c-2.346,2.137-4.057,4.061-4.418,5.24c-0.655,2.131-0.354,4.362,0.552,6.388l1.893-2.575
			C653.294,314.581,654.487,312.989,655.79,311.352L655.79,311.352z"/>
		<path id="_105817880" fill="#E3E3E4" d="M643.731,351.201c-4.25-13.47,3.01-22.825,10.845-33.428
			c5.804-7.853,17.001-22.86,28.612-17.944c8.607,3.645,21.109,24.982,22.993,34.039c2.873,13.801-7.882,34.692-23.182,36.13
			c-14.87,1.396-30.146-5.916-38.849-17.961l-0.276-0.384L643.731,351.201L643.731,351.201z"/>
		<path id="_105816224" fill="#FFFFFF" d="M646.526,350.319c-2.716-8.607-1.811-14.271,10.407-30.807
			c12.218-16.536,19.23-19.478,25.114-16.987c5.883,2.491,19.006,21.065,21.269,31.938c2.263,10.872-6.108,31.257-20.589,32.616
			C668.247,368.44,654.218,360.966,646.526,350.319L646.526,350.319z"/>
		<path id="_105825440" fill="#E3E3E4" d="M649.176,348.984c7.537,10.139,20.629,16.368,33.276,15.18
			c4.784-0.448,9.019-3.665,12.211-8.013c-5.7-0.038-15.704-0.993-26.101-6.196c-12.164-6.089-10.5-21.896-9.035-29.028l-0.24,0.326
			c-4.238,5.734-11.576,15.384-11.065,22.997C648.333,345.86,648.71,347.442,649.176,348.984L649.176,348.984z"/>
		<path id="_105812984" fill="#337497" d="M583.629,291.419c0.812,0.265,1.604,0.583,2.364,0.952
			c2.879-2.061,7.954-5.73,8.896-5.492c0.94,0.237,4.04,3.157,4.04,3.157s3.059,3.126,3.305,4.081
			c0.245,0.955-3.913,5.94-6.276,8.804c0.369,0.848,0.686,1.736,0.943,2.655c3.646,0.593,10.213,1.636,10.702,2.591
			c0.49,0.955,0.348,5.83,0.348,5.83s-0.321,4.955-0.911,5.902c-0.59,0.947-7.398,1.482-11.196,1.809
			c-0.385,0.945-0.833,1.848-1.33,2.719c2.045,3.272,5.754,9.132,5.368,10.193c-0.386,1.062-4.076,4.381-4.076,4.381
			s-3.784,3.135-4.84,3.328c-1.055,0.193-5.889-4.543-8.584-7.15c-0.875,0.345-1.771,0.645-2.689,0.873
			c-0.852,3.71-2.312,10.265-3.238,10.655c-0.926,0.392-5.323-0.179-5.323-0.179s-4.274-0.727-5.039-1.352
			c-0.764-0.627-0.859-7.107-0.944-10.759c-0.768-0.408-1.494-0.859-2.193-1.358c-2.747,1.845-7.452,5.035-8.23,4.641
			c-0.778-0.395-3.097-3.82-3.097-3.82s-2.151-3.445-2.26-4.391c-0.106-0.943,3.505-5.362,5.578-7.93
			c-0.235-0.812-0.428-1.652-0.573-2.51c-2.755-0.658-7.423-1.758-7.674-2.58c-0.251-0.824,0.264-4.885,0.264-4.885
			s0.633-3.992,1.107-4.764c0.475-0.771,5.297-1.463,8.138-1.887c0.35-0.793,0.744-1.569,1.169-2.316
			c-1.351-2.525-3.679-6.786-3.345-7.619c0.333-0.832,3.167-3.688,3.167-3.688s2.925-2.787,3.729-3.065
			c0.805-0.278,4.449,2.787,6.608,4.577c0.752-0.378,1.523-0.723,2.319-1.025c0.792-3.123,2.119-8.518,2.927-8.983
			c0.809-0.465,4.773-0.767,4.773-0.767s4.044-0.161,4.809,0.229C583.127,282.664,583.427,288.189,583.629,291.419L583.629,291.419z
			"/>
		<path id="_105822128" fill="#2A5F7B" d="M577.801,306.825c-2.224-0.038-3.888,0.582-4.993,1.85
			c-1.102,1.26-1.779,3.018-2.019,5.275c-0.116,1.097-0.101,2.112,0.04,3.021c0.143,0.92,0.42,1.728,0.836,2.411
			c0.422,0.693,0.985,1.244,1.678,1.652c0.711,0.42,1.559,0.662,2.557,0.727c0.54,0.034,1.012,0.057,1.401,0.057
			c0.396,0,0.745-0.027,1.046-0.078c0.256-2.717,0.513-5.416,0.765-8.096c1.645,0.064,3.31,0.121,4.991,0.188
			c-0.33,3.882-0.672,7.803-1.018,11.771c-0.633,0.215-1.648,0.414-3.021,0.599c-1.356,0.183-3.01,0.198-4.923,0.047
			c-1.621-0.128-3.065-0.507-4.31-1.15c-1.225-0.633-2.227-1.488-3.013-2.568c-0.78-1.072-1.33-2.341-1.643-3.818
			c-0.313-1.47-0.357-3.113-0.149-4.949c0.21-1.84,0.654-3.457,1.332-4.84c0.684-1.396,1.533-2.57,2.556-3.533
			c1.021-0.961,2.189-1.682,3.499-2.178c1.322-0.5,2.709-0.75,4.173-0.744c0.998,0.003,1.901,0.072,2.703,0.214
			c0.812,0.142,1.502,0.305,2.08,0.487c0.592,0.188,1.067,0.387,1.444,0.582c0.372,0.193,0.645,0.344,0.805,0.453
			c-0.603,1.361-1.206,2.718-1.8,4.077c-0.652-0.384-1.393-0.722-2.238-1.005C579.741,306.994,578.806,306.841,577.801,306.825
			L577.801,306.825z"/>
		<path id="_105819536" fill="#FFFFFF" d="M576.533,305.376c-2.223-0.037-3.887,0.583-4.992,1.85
			c-1.102,1.261-1.78,3.018-2.019,5.275c-0.116,1.098-0.101,2.113,0.04,3.022c0.143,0.92,0.42,1.727,0.835,2.411
			c0.423,0.693,0.986,1.243,1.678,1.651c0.711,0.421,1.56,0.663,2.558,0.727c0.539,0.035,1.012,0.058,1.4,0.058
			c0.396,0,0.746-0.028,1.047-0.078c0.256-2.718,0.512-5.416,0.765-8.096c1.646,0.064,3.31,0.121,4.99,0.186
			c-0.33,3.883-0.671,7.804-1.017,11.772c-0.634,0.215-1.648,0.414-3.021,0.6c-1.356,0.184-3.01,0.199-4.923,0.047
			c-1.621-0.129-3.065-0.508-4.31-1.148c-1.225-0.634-2.227-1.49-3.013-2.57c-0.78-1.072-1.331-2.34-1.643-3.816
			c-0.313-1.471-0.357-3.114-0.149-4.949c0.21-1.842,0.654-3.459,1.332-4.841c0.684-1.396,1.533-2.57,2.556-3.534
			c1.021-0.96,2.19-1.682,3.499-2.178c1.321-0.5,2.709-0.749,4.173-0.744c0.998,0.004,1.9,0.073,2.703,0.215
			c0.812,0.143,1.502,0.305,2.079,0.488c0.592,0.185,1.068,0.385,1.445,0.581c0.371,0.193,0.645,0.344,0.804,0.453
			c-0.602,1.361-1.205,2.718-1.799,4.077c-0.652-0.384-1.393-0.721-2.238-1.005C578.474,305.546,577.54,305.392,576.533,305.376
			L576.533,305.376z"/>
		<path id="_105817232" fill="#354C58" d="M651.362,104.221c7.235-7.828,15.971-13.402,25.457-16.815
			c9.961-3.583,20.757-4.783,31.521-3.707l-0.256,2.585c-10.391-1.039-20.8,0.115-30.392,3.564
			c-9.108,3.277-17.491,8.627-24.43,16.132L651.362,104.221z"/>
		<path id="_105825584" fill="#28353C" d="M618.254,247.044l16.169,14.297l-1.692,2.171c-11.537,14.799-9.651,25.759-0.991,41.365
			c5.197,9.366,6.123,11.616,8.044,21.91l0.892,4.782l-4.645-1.449c-14.564-4.547-26.88-18.203-30.093-33.061
			c-3.294-15.229,1.427-34.623,10.431-47.35L618.254,247.044L618.254,247.044z"/>
		<path id="_105823184" fill="#354C58" d="M618.76,251.399c0,0-15.088,21.33-9.959,45.042c5.128,23.71,28.104,30.882,28.104,30.882
			c-1.824-9.78-1.783-10.313-7.726-21.025c-8.993-16.207-11.285-28.517,1.242-44.587L618.76,251.399L618.76,251.399z"/>
		<path id="_105825728" fill="#337497" d="M694.891,196.81c-10.86,18.855-20.725,39.775-29.854,59.597l-0.448,0.972l-0.967,0.454
			c-6.312,2.964-14.274,5.354-20.961,7.154c-18.318,4.938-37.536,7.428-56.486,7.835c-15.519,0.331-33.369-0.367-48.405-4.674
			c-3.68-1.055-10.319-3.328-13.327-5.909l-0.374-0.322l-0.247-0.424c-3.346-5.731-15.068-32.62-10.933-38.431
			c1.83-2.56,6.397-1.619,9.03-1.189c4.857,0.797,9.711,1.842,14.56,2.73c15.804,2.887,31.491,4.652,47.585,4.482
			c15.654-0.166,31.871-2.512,46.728-7.551c4.778-1.621,17.42-6.588,20.624-10.667c1.52-1.944,2.229-11.682,2.335-14.18
			c0.372-8.857-0.315-18.198-2.067-26.884c-1.812-8.979-5.196-19.151-11.412-26.081c-17.167-19.143-41.01-19.708-64.856-21.601
			c-7.503-0.597-14.778-0.123-22.221,0.83c-3.198,0.41-11.163,2.431-13.022-1.112c-1.888-3.593,3.873-8.021,6.158-10.062
			c14.305-12.77,50.031-18.464,68.525-18.639c15.765-0.149,32.876,2.328,46.75,10.222c17.494,9.954,29.575,27.031,35.265,46.13
			C701.118,163.754,702.608,183.418,694.891,196.81z"/>
		<path id="_105814640" fill="#65A9CC" d="M526.348,260.017c0,0,12.676,10.878,59.762,9.871
			c47.086-1.008,76.265-14.707,76.265-14.707s17.904-38.88,29.979-59.83c12.073-20.951,3.22-69.3-32.195-89.445
			c-35.415-20.144-96.989-5.237-111.88,8.059c-14.891,13.295,2.012,3.221,27.366,5.237c25.354,2.015,49.099,2.821,66.806,22.563
			c17.708,19.741,15.697,65.271,11.269,70.911c-4.428,5.64-30.989,18.937-69.625,19.34c-38.635,0.403-66.806-10.072-68.818-7.252
			C513.264,227.584,520.11,249.34,526.348,260.017z"/>
		<path id="_105823616" fill="#4A99C4" d="M542.495,255.835l-2.265-6.285c0,0,34.886,3.768,69.754-4.676
			c-30.723,5.036-66.522,3.112-88.284-2.904c1.265,3.448,2.666,6.911,3.942,9.839C531.33,253.365,536.92,254.714,542.495,255.835z"
			/>
		<path id="_105818888" fill="#83BAD7" d="M664.846,242.887c7.747-16.563,16.025-33.471,24.969-49
			c6.848-11.883,5.195-30.122,1.441-42.723c-5.257-17.645-16.375-33.511-32.547-42.71c-10.481-5.963-23.106-8.561-35.331-9.258
			c38.859,8.026,77.081,48.421,54.418,91.642c-7.266,13.857-17.185,39.974-23.737,55.546c1.848-0.573,3.693-1.163,5.532-1.765
			C660.932,244.179,663.12,243.288,664.846,242.887z"/>
		<path id="_105818504" fill="#E3E3E4" d="M649.242,207.419c1.48-8.466,0.695-19.681-1.188-27.718
			c-2.258-9.635-4.658-17.938-11.023-25.818c-9.685-11.993-25.19-18.183-39.749-21.758c-16.605-4.083-34.116-5.177-50.996-2.159
			c-4.744,0.848-9.499,2.027-14.051,3.628c-0.908,0.32-5.289,2.233-6.085,2.233h-0.69l-0.618-0.308
			c-5.86-2.927-2.383-10.104,0.717-13.619c10.898-12.375,32.73-14.057,47.993-14.49c29.066-0.815,73.014,8.989,84.129,39.808
			c4.869,13.503,7.483,28.441,7.719,42.793c0.117,7.22-0.421,21.173-4.373,27.45c-20.543,32.563-115.177,32.096-146.885,18.869
			c-6.967-2.92-9.701-18.834-2.664-22.958l0.26-0.152l0.285-0.096c1.413-0.477,3.591,0.497,4.975,0.908
			c3.287,0.978,6.642,1.77,9.997,2.469c16.364,3.402,33.817,5.013,50.462,6.145c18.256,1.238,37.393-0.36,54.683-6.662
			C637.215,214.133,644.616,210.89,649.242,207.419z"/>
		<path id="_105817784" fill="#FFFFFF" d="M512.964,215.899c-4.829,2.82-2.516,15.712,2.313,17.728
			c29.634,12.366,123.444,13.703,143.273-17.728c4.829-7.655,6.84-38.679-3.623-67.688c-10.463-29.009-52.721-38.677-81.294-37.872
			c-28.574,0.805-39.84,6.646-45.877,13.496c-6.037,6.849-1.606,9.064-1.606,9.064s28.369-14.302,71.834-3.624
			c43.465,10.677,49.099,33.44,52.922,49.758c3.823,16.318,1.006,30.017,1.006,30.017s-24.144,19.943-74.652,16.518
			C526.751,222.144,513.571,215.697,512.964,215.899L512.964,215.899z"/>
		<path id="_105824576" fill="#F26522" d="M713.177,73.793c7.001,0,12.677,5.727,12.677,12.792c0,7.065-5.676,12.792-12.677,12.792
			c-7.002,0-12.677-5.727-12.677-12.792C700.501,79.52,706.176,73.793,713.177,73.793z"/>
		<path id="_105826448" fill="#F98C19" d="M713.177,76.721c5.384,0,9.748,4.416,9.748,9.863c0,4.699-3.251,8.627-7.598,9.618
			c2.664-1.761,4.43-4.799,4.43-8.258c0-5.447-4.364-9.864-9.747-9.864c-0.744,0-1.462,0.082-2.159,0.24
			C709.384,77.306,711.209,76.721,713.177,76.721L713.177,76.721z"/>
		<path id="_105813248" fill="#E3E3E4" d="M522.576,254.174c21.697,6.04,41.351,9.146,64.106,8.355
			c8.013-0.278,16.088-1.325,23.981-2.697c13.071-2.275,26.097-5.536,38.821-9.279c4.24-1.247,8.463-2.555,12.659-3.937
			c0.912-0.301,4.841-1.78,5.733-1.78h0.209l0.208,0.029c4.169,0.6,6.701,4.377,6.535,8.457c-0.177,4.333-6.12,8.008-9.56,9.985
			c-8.56,4.917-22,7.902-31.683,9.832c-12.148,2.422-26.763,4.894-39.166,5.712c-16.504,1.09-49.084,0.796-64.232-4.96
			c-7.528-2.859-14.425-9.139-11.143-17.923l0.941-2.517L522.576,254.174z"/>
		<path id="_105813176" fill="#FFFFFF" d="M521.791,256.996c-2.647,7.083,3.388,11.86,9.439,14.159
			c18.205,6.919,60.377,4.949,63,4.777c2.911-0.192,52.337-5.257,69.582-15.163c3.577-2.055,7.99-5.092,8.091-7.565
			c0.198-4.831-4.025-5.438-4.025-5.438s-46.281,16.482-81.094,17.69C551.972,266.665,525.414,258.003,521.791,256.996z"/>
	</g>
</g>
<g id="Layer_2">
</g>
</svg>
