<svg xmlns="http://www.w3.org/2000/svg" viewBox="0 0 600 484.8"><path d="M145.72,484.15c-17.25-21.6,43.7-91.71,56.85-107,12.33-14.37,66.66-74.85,83.2-80.18,23.14-7.46,128.41,66.5,133.1,90,3.53,17.73-52.21,91.66-63.52,106.62-12.65,16.72-63.67,83-81.46,90.22-18.27,7.46-60.42-31.7-72.72-43-12.56-11.5-24.75-23.52-36.55-35.81-5.87-6.12-14-14.16-18.9-20.83Z" fill="#28353c"/><path d="M149.46,481.23c6.48,8.89,99,107.79,122.63,98.13S418.45,409.1,414.21,387.84s-107.42-92.71-127-86.41S128.38,454.83,149.46,481.23Z" fill="#28353c"/><path d="M357.4,342.84s42.43,26.79,42.14,42.82-116,176.45-130.33,180.53-45.3-30-45.3-30Z" fill="#354c58"/><path d="M33,624.89c6-9.45,11.64-20.51,17.14-30.31q17.68-31.44,35.31-62.92,26.26-46.87,52.5-93.78l3.53-6.33,46.25,60.81-1.6,2.74c-17.34,29.73-34.21,60.23-49.94,90.82-12.5,24.31-24.95,49.05-36.36,73.9l-2,4.38-4.35-2.08q-14.9-7.12-29.7-14.48c-6.84-3.4-13.7-6.83-20.44-10.42-3.66-2-14.65-6.48-10.33-12.33Z" fill="#337497"/><path d="M182,492.71s-27.37,46.92-50.06,91S95.5,657.84,95.5,657.84s-59.88-28.66-58.64-30.2S142.07,440.2,142.07,440.2L182,492.71Z" fill="#65a9cc"/><path d="M248.56,318.51c-9,17.62-20.94,40.29-34.37,55-7,7.68-12.8,11.48-22.52,14.78a76.22,76.22,0,0,0-7.52,2.81C173.53,396,161,405.39,151.07,412s-26,17.46-37.39,20a19.41,19.41,0,0,1-4.36.47c-20.87-.09-37.35-31.25-33.15-50a27.48,27.48,0,0,1,5.92-12.22c10.46-12.13,37.63-15.07,52.71-18,15.69-3.06,33.53-9.9,48.49-15.63C203.12,329,223,320.71,242.4,312l12.32-5.53-6.16,12Z" fill="#337497"/><path d="M244.34,316.35s-76.42,34.23-108.63,40.51S85,364.78,80.8,383.47s14.52,47.82,31.83,43.89,53.47-33.18,69.53-40.56S208.26,386.71,244.34,316.35Z" fill="#4a99c4"/><path d="M251.05,300.19c34.89,4.91,76,34.38,99.88,59.36l2.95,3.08-2.76,3.26c-17.12,20.25-31.48,45.35-44.07,68.65-11.88,22-22.88,44.4-34.53,66.48-29.63,56.15-116.39,31.8-136-18.71-4.44-11.43-6.69-21.9-3.28-33.54,7.26-24.83,26-52.65,41-73.36,11.89-16.43,53.05-69.71,75-75.12l.89-.23Z" fill="#337497"/><path d="M250.38,304.89s-23.37,5.77-72.28,73.3S130,468.87,134.91,481.44c6.07,15.61,18.46,30.82,32.26,39.64,32.68,20.89,80.7,16.47,101.15-22.27,22-41.77,49.33-100.68,79.18-136C347.5,362.83,298.68,311.68,250.38,304.89Z" fill="#65a9cc"/><path d="M227.64,526.19c.78-.22,1.55-.46,2.32-.71-4.55-23.57,10.68-60.31,18.79-77.53a65.78,65.78,0,0,1,9.54-14.68l-2.76-2.55S223.48,471.6,219.94,497A38.42,38.42,0,0,0,227.64,526.19Zm87.5-125.66c4.75-7.84,9.67-15.45,14.8-22.7q-3.54-.18-7.07-.42a26.28,26.28,0,0,0-8,17.33,28.22,28.22,0,0,0,.23,5.79Zm-52.88-31.41c-3.61,9.72-6.7,21.94-6.13,34.53a73.53,73.53,0,0,0,5.82,25.8,37.44,37.44,0,0,1,7.8-5.75,63,63,0,0,1-2.41-25.89c1-9,4.6-17.62,9.93-25.66C272.36,371.28,267.34,370.27,262.26,369.12Z" fill="#4a99c4"/><path d="M246.32,386a31,31,0,0,1,2.89,3c5.62-1.18,15.54-3.31,16.78-2.35s3.94,7.32,3.94,7.32,2.5,6.64,2.24,8.21-9.68,6.26-15.06,9a32.11,32.11,0,0,1-.33,4.56c5,3.26,14.09,9.09,14.19,10.82s-3.29,8.88-3.29,8.88-3.71,7.14-5.2,8.16-12-2.62-17.79-4.62a38.59,38.59,0,0,1-3.75,3.17c.9,6.19,2.58,17.3,1.31,18.62s-8.9,3.84-8.9,3.84-7.66,2.19-9.35,1.79-5.78-10.59-8.07-16.21a34.87,34.87,0,0,1-4.56-.46c-3.69,4.95-10.13,13.72-11.76,13.7s-7.78-3.74-7.78-3.74-5.87-3.87-6.6-5.3,3.36-11.1,5.62-16.57a33,33,0,0,1-2.37-3.45c-5.28.94-14.34,2.61-15.24,1.51s-2.1-7.68-2.1-7.68-.95-6.52-.49-8,8.7-5.67,13.45-8.13a35.24,35.24,0,0,1,.79-4.1c-3.66-2.77-9.87-7.44-9.71-8.83s3.58-7.07,3.58-7.07,3.54-5.52,4.75-6.35,8.81,1.28,13.31,2.51a39.36,39.36,0,0,1,3.24-2.68c-.35-4.63-1-12.47,0-13.48s7.1-3.41,7.1-3.41,6.16-2.23,7.54-2.11,4.78,7,6.81,11.1a40.25,40.25,0,0,1,4.11,0c3.22-4.12,8.71-11.26,10.21-11.42s7.58,2,7.58,2,6.1,2.39,7,3.47S248.13,381,246.32,386Z" fill="#528aa6"/><path d="M244.79,381.42a32.26,32.26,0,0,1,2.89,3c5.61-1.18,15.53-3.31,16.78-2.35s3.93,7.32,3.93,7.32,2.5,6.64,2.24,8.21-9.68,6.26-15,9a33.53,33.53,0,0,1-.34,4.55c5,3.26,14.09,9.09,14.19,10.83s-3.28,8.88-3.28,8.88-3.71,7.14-5.21,8.16-11.94-2.63-17.79-4.62a37.43,37.43,0,0,1-3.75,3.17c.9,6.19,2.58,17.3,1.32,18.62s-8.91,3.84-8.91,3.84-7.66,2.18-9.35,1.78-5.77-10.58-8.07-16.2a35,35,0,0,1-4.56-.46c-3.68,4.95-10.13,13.72-11.76,13.69s-7.78-3.73-7.78-3.73-5.87-3.87-6.59-5.3,3.36-11.1,5.61-16.58a33.35,33.35,0,0,1-2.37-3.44c-5.28.94-14.34,2.61-15.24,1.51s-2.1-7.69-2.1-7.69-.94-6.51-.49-8,8.7-5.67,13.45-8.13a35.24,35.24,0,0,1,.79-4.1c-3.66-2.77-9.87-7.45-9.7-8.83s3.57-7.08,3.57-7.08,3.55-5.51,4.75-6.34,8.82,1.28,13.31,2.51a39.5,39.5,0,0,1,3.25-2.68c-.36-4.63-1-12.47,0-13.49s7.11-3.4,7.11-3.4,6.15-2.23,7.53-2.12,4.78,7,6.82,11.11a37.55,37.55,0,0,1,4.11,0c3.21-4.12,8.7-11.26,10.2-11.42s7.58,2,7.58,2,6.11,2.4,7,3.48-2.27,9.47-4.08,14.39Z" fill="#337497"/><path d="M226.09,400.49q-4.91-2.26-8.62-.52a15.06,15.06,0,0,0-6.43,6.52,18.72,18.72,0,0,0-1.91,4.5,10.57,10.57,0,0,0-.34,4.12,7.73,7.73,0,0,0,1.42,3.55,9.18,9.18,0,0,0,3.32,2.75c.77.4,1.46.74,2,1a11.06,11.06,0,0,0,1.6.56l6.42-11.51,7.28,3.53q-4.53,8.33-9.19,16.8a28.4,28.4,0,0,1-4.87-1.08,38.08,38.08,0,0,1-7.33-3.14,18.18,18.18,0,0,1-5.65-4.52,13.72,13.72,0,0,1-2.79-5.77,16,16,0,0,1,.05-6.74,24.86,24.86,0,0,1,3-7.44,23.86,23.86,0,0,1,5.13-6.31,19.58,19.58,0,0,1,6.1-3.58,17.06,17.06,0,0,1,6.61-.95,18.7,18.7,0,0,1,6.67,1.62,26.75,26.75,0,0,1,3.88,2.08,26.28,26.28,0,0,1,2.76,2.08,14.62,14.62,0,0,1,1.77,1.81,13.34,13.34,0,0,1,.89,1.2q-2.67,2.43-5.33,4.87a18.75,18.75,0,0,0-2.66-2.95A14.79,14.79,0,0,0,226.09,400.49Z" fill="#2a5f7b"/><path d="M225.16,397.51c-3.28-1.51-6.15-1.67-8.62-.51a15,15,0,0,0-6.44,6.51,19.14,19.14,0,0,0-1.9,4.51,10.57,10.57,0,0,0-.34,4.12,7.76,7.76,0,0,0,1.41,3.55,9.16,9.16,0,0,0,3.32,2.74c.78.4,1.47.75,2,1a9.76,9.76,0,0,0,1.6.57l6.41-11.52,7.29,3.53q-4.53,8.33-9.19,16.81a29.2,29.2,0,0,1-4.87-1.08,38.51,38.51,0,0,1-7.34-3.15,18.11,18.11,0,0,1-5.64-4.51,13.72,13.72,0,0,1-2.8-5.78,16,16,0,0,1,.05-6.74,25.4,25.4,0,0,1,3-7.44,23.89,23.89,0,0,1,5.14-6.31,19.85,19.85,0,0,1,6.09-3.58,17.08,17.08,0,0,1,6.61-.94,18.79,18.79,0,0,1,6.68,1.61,25.68,25.68,0,0,1,3.87,2.09,25.17,25.17,0,0,1,2.77,2.08,15.21,15.21,0,0,1,1.76,1.8,14,14,0,0,1,.9,1.2c-1.78,1.63-3.56,3.24-5.33,4.87A19.35,19.35,0,0,0,229,400,14.81,14.81,0,0,0,225.16,397.51Z" fill="#fff"/><path d="M107.56,369.8c17.78,6.82,31.77,24.12,29.86,43.81-2.48,25.59-22.5,49.64-49.37,50.48-22.37.7-49-19.83-44.87-43.89,5.46-31.84,29.57-55.23,63.32-50.67l.54.07Z" fill="#e3e3e4"/><path d="M105.86,374.23s29.52,11.32,26.84,38.91-24.28,45.56-44.8,46.2S44.4,441.06,47.85,421s19.71-51.95,58-46.77Z" fill="#fff"/><path d="M117.16,381.44a133.8,133.8,0,0,1,2.29,17.39c.87,11.05-5.82,22.2-15.19,27.78l-1.33.79-1.54-.15a25.48,25.48,0,0,1-8.3-2.22c-9.75-4.46-16.15-14.4-19.67-24.17-3.87-10.71-7.28-32.75,4-40.36,14-9.44,30.83-38.62,46.89-42.14,16.44-3.61,33.67,19.87,31.63,34.7-1.58,11.45-25.82,23-38.8,28.38Z" fill="#e3e3e4"/><path d="M101.84,422.53s14.06-8.37,12.88-23.32-3.3-20.59-3.3-20.59,38.27-14.79,39.84-26.21S138.51,320.1,125.35,323s-32.71,33-45.26,41.45-3.6,55.71,21.75,58.09Z" fill="#fff"/><path d="M111.89,439C96,447.92,68.63,470.84,49.63,466.8,31.3,462.9.16,403.44,2.88,386.45,5.31,371.23,44.49,346,59,347c12,.81,39.27,8.11,41.8,21.85,2.91,15.72,24.65,55.57,12.31,69.2l-.52.57Z" fill="#e3e3e4"/><path d="M109.57,434.87c-10.18,5.72-42.39,30.81-58.95,27.29s-45.16-61.79-43-75S47.39,351,58.66,351.75s35.58,7.8,37.46,18,22.71,54.93,13.45,65.15Z" fill="#e3e3e4"/><path d="M109.57,434.87c-8.07,4.53-29.94,21.21-46.92,26.2,10.87-6.35,23.86-17.32,26.49-22.08,3.44-6.24-3.57-22.2-19.11-59.2-6-14.28-11.77-22.53-16.6-27.3a16.87,16.87,0,0,1,5.23-.74c11.27.76,35.58,7.8,37.46,18S118.83,424.65,109.57,434.87Z" fill="#fff"/><path d="M51.12,382c-20.23-2.54-26.37-43.56-22.34-59.16,4.75-18.36,42.29-26.38,54.67-15.27,6.12,5.51,11.14,23.59,13.23,31.54,1.64,6.21,7.22,28.89,5.44,34.72C98.72,385,61,384.48,51.12,382Z" fill="#e3e3e4"/><path d="M52,377.35c-14.89-1.48-22.85-36.92-18.61-53.29s38.47-20.49,46.89-12.93,18.92,56.07,17.31,61.34S64.72,380.86,52,377.35Z" fill="#fff"/><path d="M52,377.35C38.23,376,30.4,345.61,32.63,328.09c4.75-5.52,17.23-18.27,28.67-15.08,14.48,4,15.56,38.16,13.39,49S64.44,374.25,57.3,376.29c-1.69.48-3.34.87-4.86,1.18Z" fill="#e3e3e4"/><path d="M428,81.87a103.79,103.79,0,0,1,39.08-30.31,116.73,116.73,0,0,1,50.49-9.86l-.1,4.21a112.63,112.63,0,0,0-48.68,9.49,99.57,99.57,0,0,0-37.5,29.08Z" fill="#354c58"/><path d="M524.16,25.09a20.74,20.74,0,1,1-18.91,22.24A20.65,20.65,0,0,1,524.16,25.09Z" fill="#f26522"/><path d="M524.53,29.83a16,16,0,0,1,5.87,31.22,16,16,0,0,0-10.83-28.64,15.81,15.81,0,0,0-3.46.66,15.56,15.56,0,0,1,8.42-3.24Z" fill="#f98c19"/><path d="M272.06,398.32c3.17-29.44,38.3-55.46,63.08-67.11l1.27-.6,10.25,1.4,1.19,1.68A66.14,66.14,0,0,1,354,344.61c4.22,9.56,3.91,20.87-9.66,20.17-17.62-.9-33.07,11.79-34.2,29.66-.54,8.58,2.33,20.2,12.06,22.53l6.25,1.36-20,35.75c-4.62,8.26-20.84-9.36-23-11.9a56.47,56.47,0,0,1-13.39-43.86Z" fill="#28353c"/><path d="M337.16,335.5S280.74,362,276.78,398.82s27.54,52.95,27.54,52.95l16.88-30.16s-17.26-3.74-15.76-27.47,22.56-34.95,39.17-34.09-.64-23.62-.64-23.62Z" fill="#354c58"/><path d="M320.75,423.85l-16.63-16.6-.26-1.62c-1.07-6.7.17-15.48,2.5-21.73,6.13-16.46,20.56-24.47,37.33-26.9l1.73-.25,1.49.94c19.61,12.41,80.18,53.23,84.81,74.94,5.38,25.21-8.05,44.79-33.29,49.6-13,2.48-28.9,2.74-42.16,3-16.44.38-33,.39-49.47.05l-3.27-.07-22.25-62.14,39.47.73Z" fill="#337497"/><path d="M339.25,359s83.1,52.46,87.83,74.64-6.33,39.52-29.54,43.95-90.65,3-90.65,3L288.06,428l89.61,1.66s-10.2-4.27-29.94-4.92L328,424.07l-25-22.82S297.52,365,339.25,359Z" fill="#65a9cc"/><path d="M351.71,378.45c23.63,18.33,60,48.44,61.71,61.36,2.57,19.21-9.12,24.85-35.55,26-14.45.62-32.15-.21-45.2-1.08a58.23,58.23,0,0,1-.82,11.35q12.12,0,24.2-.29c12.68-.29,28.2-.51,40.61-2.88,20-3.81,30-18.29,25.78-38.3-2.65-12.4-37.25-38.59-62.61-56.19Q355.77,378.47,351.71,378.45Z" fill="#83bad7"/><path d="M293.5,429.49c9.28-3.3,22.84-3.45,27.57,7.2,7.4,16.69-3.57,37.45-18,46.45-12.1,7.55-33.37,13.31-41.63-2.82-6-11.78,22.55-41.71,30.47-49.82l.67-.69Z" fill="#e3e3e4"/><path d="M294.88,433.45s17.44-6.2,22.39,4.95.26,30.78-16.38,41.17-30.87,8.35-35.75-1.18,29.74-44.94,29.74-44.94Z" fill="#fff"/><path d="M246.37,493.05a21.43,21.43,0,0,1-.75,13.74c-1,2.64-.16,1.23-2,3.21-4.52,4.84-12.33,4-18,2.08a41.36,41.36,0,0,1-18.67-13.34c-11.77-14.92-6-49.31,3.11-64.57,10.59-17.67,56.49-15.1,74.32-13.21,9.29,1,23.79,5.5,28,15.12l.08.19.06.2c7.48,23.12-16.2,41.66-34.69,49.24A103.49,103.49,0,0,1,246.37,493.05Z" fill="#e3e3e4"/><path d="M308.56,437.77s-4.6-10.52-24.62-12.64-61.58-3.39-70.33,11.22-13.58,46.89-3.42,59.78,28.35,17.36,31.56,9.12-.52-13.27-.52-13.27-10.55,1.72-16.59-4.53-5.48-8.53-5.48-8.53,10.72,10.92,26.77,10a102.56,102.56,0,0,0,30.28-7s41.15-16.86,32.35-44.07Z" fill="#fff"/><path d="M304.7,439.34c-3.29-6.37-15-9.38-21.19-10-13.53-1.44-58.46-3.94-66.34,9.22-2.85,4.75-5.47,12.42-7,20.72a62.44,62.44,0,0,1,37.82-17c21.47-1.93,48.36,5.24,57,7.78a19.43,19.43,0,0,0-.27-10.67Z" fill="#e3e3e4"/><path d="M380.47,326.94c-11,4.11-32.5,4.24-43,3.85C285.69,328.88,227.67,313,178.8,297.07l-2.18-.72-.8-2.15c-14.88-40.24-19-97-7.9-138.09,7.11-26.24,21.53-50,43.73-66.09,8-5.83,20.46-12.65,30.5-14.86C280.63,69,332,70.47,369.23,80.53c22.48,6.07,44.43,16.07,61.46,32.27C445.15,126.56,454.42,143.65,459,163a132.43,132.43,0,0,1,3.32,30c0,22.92-5.11,46.57-13.26,68-5.3,13.92-14.4,33.15-25,43.86-9.52,9.63-28.47,23.65-43.56,22.09Z" fill="#65a9cc"/><path d="M180.27,292.55s-25.62-69.25-7.77-135.2S243,79.84,243,79.84s125-20.15,184.45,36.4S444,277.92,420.65,301.51s-40.79,20.55-40.79,20.55S333.73,342.51,180.27,292.55Z" fill="#deedf6"/><path d="M230.78,222.39l-4.09,49.81-5-.68c-12.54-1.72-19.16-14.38-19.43-26-.34-14,9.66-24,23.56-23.37Z" fill="#191919"/><path d="M225.65,226.92s-19.08-.82-18.62,18.52,15.34,21.37,15.34,21.37Z" fill="#d3ae8a"/><path d="M432.06,233.65c12.59,1.7,21.2,11,18.1,25.51-4.05,19-16.51,24.43-32.9,29.24-2.37,1.73-12.76,15.34-15.2,18.1-9.89,11.12-21.28,20.65-35.15,26.38-18.36,7.59-44.63,11.44-64.64,9.25-31.51-3.65-52.11-8.42-71.65-36.68S217,210.29,229.32,179.7c12.74-31.73,34.2-52.15,68.37-59.11,40.13-8.17,95-.92,118,37.36,9.91,16.54,15.06,35.52,16.38,54.67a171.25,171.25,0,0,1,0,21Z" fill="#191919"/><path d="M302.81,337.41c-25-2.89-48.07-5.43-68.28-34.66s-10.5-97.16-.81-121.28,27-48.51,64.92-56.23,91.08-1.35,113,35.16,15,77.74,15,77.74,23.4-1.06,18.89,20-24.28,24.12-29.88,25.76-20.43,32.12-50.54,44.56S302.81,337.41,302.81,337.41Z" fill="#fc9"/><path d="M230.37,191.64a99.39,99.39,0,0,1,3.36-10.17c8-19.85,21.15-39.87,46.65-50.64,17.81,1.69,36.24,3.55,42.17,4,12,1,71.4,16.06,79.25,19.23,4,1.62,10.55,10.32,16,18.45a117,117,0,0,1,7.05,22.52l-17.1,53.75s-20.15,10.74-25.39,5.3,8.23-28.2,8.69-42.26-15-12.27-45.58-8.94-44.87-3.73-48.76-6.07,6.68-6.79,6.68-6.79-10-2.3-42.39,3.17A73,73,0,0,1,230.37,191.64Z" fill="#d3ae8a"/><path d="M279.54,279s21.6,6.09,31.33,23,7.28,34,8.05,32,10.92-39.81,11.12-42.48S325.68,277,325.68,277s-18.08,2.28-28.38,1.57A89.62,89.62,0,0,0,279.54,279Z" fill="#d3ae8a"/><path d="M292,253.71a2.1,2.1,0,1,1-2,3.69s-17-8.75-11.48-15.45c4.16-5,15.56-9.69,15.58-9.7a2.1,2.1,0,1,1,1.59,3.89s-10.43,4.28-13.92,8.49c-2.09,2.53,10.21,9.07,10.25,9.08Z" fill="#191919"/><path d="M300.62,279.48s12.36,8.18,17,18.25,4,17.44,4,17.44,18-6.72,25.09-23.93,4.91-28.13,4.91-28.13a71.56,71.56,0,0,0-22.85,7.17c-11.25,5.91-28.39,8.93-28.14,9.2Z" fill="#191919"/><path d="M306.68,324.42s-3-12.6,7.36-24.44,32.7-8.37,32.7-8.37S341.6,320.36,306.68,324.42Z" fill="#f9c"/><path d="M329.74,292a57.25,57.25,0,0,1,17-.37A39.76,39.76,0,0,1,340,306.18c-2.16-8.61-6.47-12.48-10.28-14.2Z" fill="#c785a6"/><path d="M259.77,279.18a2.11,2.11,0,1,1,.65-4.16c.1,0,37.48,6.07,59.76-3.64,11.5-5,19-8.18,23.84-9.66,6.12-1.86,8.93-1.22,10.13,1.89l0,.08v.08a3.56,3.56,0,0,1,.17.68h0c.46,2.95-.88,15.38-5.25,28s-11.92,26-23.81,30.58h0a24.38,24.38,0,0,1-5.18,1.39c-28.25,4.43-33.36-3.4-33.38-3.42a2.11,2.11,0,0,1,3.34-2.58s3.68,5.87,29.39,1.84a20.66,20.66,0,0,0,4.3-1.16h0c10.48-4.06,17.28-16.22,21.36-28s5.47-23.36,5.05-26h0c-.26-.51-1.63-.35-5,.66-4.67,1.42-12.06,4.55-23.4,9.5-23.41,10.2-62,3.95-62.08,3.93Z" fill="#191919"/><path d="M253.39,205.22a2.36,2.36,0,1,1-3.72-2.92c.07-.09,27-34.05,34.46,5.47a2.37,2.37,0,1,1-4.65.89c-5.57-29.35-26-3.51-26.09-3.44ZM411,275a2.38,2.38,0,0,1-2.23-4.2s11-5.76,7.08-14.27a21.31,21.31,0,0,0-8.5,3.25,2.37,2.37,0,1,1-2.74-3.86s14.65-10.19,25,1.09a2.37,2.37,0,1,1-3.5,3.19,11.4,11.4,0,0,0-5-3.27c3.16,11.16-10,18-10,18.07Zm-57.71-30.66a2.37,2.37,0,0,1-2.16,4.21s-8.69-4.46-14.11-4.06c-1.36.1-2.53.24-3.45.35h0a8.09,8.09,0,0,1-3.65,0h0c-2.31-.85-2.38-2.19-1.35-5l0-.07,0-.11.05-.1h0c.83-1.8,5.93-7.26,12.82-11.27s15.91-6.87,24.59-3.64l.07,0a16,16,0,0,1,1.48.62,2.36,2.36,0,1,1-2,4.3c-.37-.17-.74-.33-1.11-.47l-.11,0h0c-7.07-2.62-14.61-.17-20.56,3.29a42.84,42.84,0,0,0-9.76,7.64c.73-.08,1.56-.16,2.57-.24C343.38,239.26,353.24,244.31,353.27,244.32Z" fill="#191919"/><path d="M267.52,215.75c3.82,1.17,6,7.09,4.93,13.22s-5.08,10.15-8.91,9-6-7.08-4.94-13.22S263.69,214.58,267.52,215.75Z" fill="#191919"/><path d="M194.62,136.46s15.78,37.46,55.83,43.17,78.76-5.49,78.76-5.49-17.08,8.21-20.12,11.89,27,12.09,50.35,9.63,35.87.59,37.23,8.69-2.32,32.69-7.73,44.09-.86,16.63,7.63,12.7,25-24.22,34.56-24,14.17,10.08,14.17,10.08,25.87-42,21.16-68-40.24-74.11-103.86-80.5-61.06-6-89.88,10.54-35.63,27.5-78.1,27.19Z" fill="#191919"/><path d="M201.82,94.35c5.5-6.5,15.67-13.41,22.82-17.63,22.94-13.51,50-21.21,76.21-25.14,60.3-9.06,136.35,12.07,178.87,57.13C516.28,147.45,509,215.8,475.66,254.3c-9.77,11.27-18.82,23.42-27.46,35.58-16.22,22.85-32,47.07-46.28,71.19l-.89,1.5-1.64.57c-20.77,7.17-68.73,2.73-89.54,0-42.78-5.61-94.48-23.53-133.09-43l-2.14-1.08-10-59.46,8.82,5.28c6.62,3.95,14.87,7.49,21.93,10.45,22,9.22,45.19,16.43,68.24,22.34,10.66,2.73,21.47,4.94,32.31,6.82a734.66,734.66,0,0,0,108,10.21c3.89-6.39,12.66-18.45,14.28-20.82,15.43-22.51,41.33-85.37,34.72-112-4-16.06-12.38-27.73-25.35-37.91-21-16.48-51.73-27.25-77-34.72-32.28-9.53-66.67-13.06-100.26-11.81-10.72.4-21.48,1.28-32.11,2.75-3,.41-9.57,1.3-11.52,1.89L189.6,107.2l12.22-12.85Z" fill="#337497"/><path d="M171,269l7.9,46.94s67.79,34.15,131.57,42.51,87.36.21,87.36.21,41.09-69.21,74.24-107.45,37.8-103.62,4.2-139.23-104-66.32-174.72-55.69-96.19,41.24-96.19,41.24S276,82.25,352,104.69s98.39,47,105.61,76-20.18,93.65-35.41,115.87-15.44,22.92-15.44,22.92S325,318.35,262.42,302.3,171,269,171,269Z" fill="#65a9cc"/><path d="M180.09,294.42l.1.58c30.6,15.52,67.19,28,100.25,35.53,29.15,6.64,64.11,8.64,96.52,7.31-2.66-.07-5.29-.17-7.82-.28-29.55-1.27-59.11-6-88-12.35C250.2,318.45,210.76,308.9,180.09,294.42Z" fill="#4a99c4"/><path d="M469.31,247.1c29.48-35,36.36-97.06,3.51-131.87-27.44-29.08-70-47.66-112.33-53.88a214.69,214.69,0,0,1,61.73,27.19c69.91,44.78,66.55,106,60.47,127.13-3.3,11.48-8.92,23.15-13.38,31.43Z" fill="#83bad7"/><path d="M406.82,303.1c16.15-26.63,39-73.55,39.28-103,.4-44.57-40.55-67.42-78.76-77.33a372.85,372.85,0,0,0-42.92-8.19,519.12,519.12,0,0,0-57.34-4.67c-11.15-.28-26.84-.58-37.73,1.74-13.1,2.8-28.44,8.75-40.31,15.07l-3.67,1.95L183,125.33c-3.74-5.19-1.24-14.71,1-20a39.73,39.73,0,0,1,19-20.4c15.15-7.27,39.47-10.28,56-11.17,34.68-1.88,70.15,2.88,103.59,12,46.83,12.75,108.74,42.64,116.11,97.1,4.22,31.19-27.64,90.38-44.64,116.85-4.8,7.48-15.09,26.67-23.18,30.48a18,18,0,0,1-4.37,1.39c-11,2.1-26.07,1.77-37.17,1.29-29.12-1.25-58.73-6-87.17-12.24-33.85-7.39-84.61-20.09-114.9-38.32-9.89-5.95-11.67-23.48-1.51-29.38,4-2.3,9.4-.11,13.26,1.43,6.77,2.68,13.45,5.78,20.2,8.57a490.47,490.47,0,0,0,83.49,25.7,634.26,634.26,0,0,0,92.8,13.65,304.29,304.29,0,0,0,31.31.87Z" fill="#e3e3e4"/><path d="M186.8,122.56c-3.36-4.67,1.41-25.3,18.26-33.39s75.57-20.86,156.29,1.12S469.88,153,474,183.45s-29.3,90.86-43.93,113.64-16.71,28.3-24.44,29.78S358,332.26,283.19,315.94s-105.7-33.07-113.47-37.75-7.63-17.69-1.57-21.21,34.11,18.87,113.55,36.24,127.86,14.5,127.86,14.5,40.92-66.19,41.29-107.54-32.58-69.08-82.32-82S249.07,102.63,228.36,107,186.8,122.56,186.8,122.56Z" fill="#fff"/><path d="M170.49,328.7c-5.22-1.81-7.45-8.62-7.9-13.57-.53-5.82,1.23-13.11,5.54-17.34l2.47-2.42,3.06,1.61c31.16,16.4,71.7,30.44,105.73,38.18,39.07,8.9,90.48,9.55,130.31,4.91l5.93-.69-.66,5.93a57.8,57.8,0,0,1-3.11,12.93c-2,5.28-7.62,9.89-12.67,12.21l-.54.25-.59.11c-9.18,1.67-19.82,2.25-29.11,2.61a466.85,466.85,0,0,1-79.26-4.14C252.05,364.27,203.52,348.79,170.49,328.7Z" fill="#e3e3e4"/><path d="M171.45,301.18s-4.93,4.83-4.13,13.52,5.11,9.62,5.11,9.62,51.19,31.38,117.89,40.25,106.89,1.57,106.89,1.57,8-3.69,10.2-9.55a56.32,56.32,0,0,0,2.84-11.81s-72.76,8.48-131.92-5S171.45,301.18,171.45,301.18Z" fill="#fff"/></svg>